<svg width="173" height="224" viewBox="0 0 173 224" fill="none" xmlns="http://www.w3.org/2000/svg">
<g clip-path="url(#clip0_50_568)">
<path d="M48.8482 126.294C50.9789 111.521 44.9276 95.7416 30.8476 79.3547C26.6579 89.9529 25.5728 101.525 27.719 112.717C29.8653 123.91 35.1543 134.259 42.9673 142.556C45.9726 137.572 47.9706 132.047 48.8482 126.294Z" fill="white"/>
<path d="M145.988 109.356C145.495 113.105 144.644 116.798 143.448 120.385C132.357 116.248 115.606 112.6 98.6339 118.68C83.0595 124.248 70.6443 136.755 61.5929 155.943C58.3994 154.471 55.3403 152.724 52.4506 150.721C56.8631 143.896 59.7813 136.214 61.0133 128.18C63.6043 110.504 57.3087 92.2758 42.2968 73.8888C45.815 75.8135 49.7207 76.9232 53.7252 77.136C57.7298 77.3489 61.7311 76.6594 65.4335 75.1186C69.1359 73.5777 72.4449 71.2248 75.116 68.2337C77.7872 65.2426 79.7523 61.6896 80.8663 57.8372C82.2299 66.4113 85.3266 75.6332 91.5371 83.9744C102.628 98.8499 120.924 107.373 145.988 109.356Z" fill="white"/>
<path d="M102.697 130.277C90.6791 134.595 80.8436 144.539 73.332 159.897C85.7614 162.701 98.7607 161.476 110.447 156.399C122.134 151.321 131.901 142.656 138.334 131.658C129.146 128.362 115.731 125.584 102.697 130.277Z" fill="white"/>
<path d="M101.458 76.69C110.259 88.4631 125.322 95.2986 146.346 97.0657C145.304 82.97 139.316 69.6955 129.44 59.5844C119.564 49.4733 106.434 43.1756 92.3667 41.8025C91.8553 51.5471 93.0429 65.4112 101.458 76.69Z" fill="white"/>
<path d="M58.8258 71.2068C64.7285 71.2068 69.5136 66.4216 69.5136 60.5189C69.5136 54.6162 64.7285 49.8311 58.8258 49.8311C52.9231 49.8311 48.1379 54.6162 48.1379 60.5189C48.1379 66.4216 52.9231 71.2068 58.8258 71.2068Z" fill="white"/>
<path d="M131.027 0.841019C131.544 20.0576 116.964 36.4842 97.6395 37.3024C94.3745 37.4904 91.0991 37.2265 87.9063 36.5183C87.8104 33.2505 88.1641 29.985 88.9574 26.8135C93.378 7.9833 112.254 -3.26139 131.004 0.841019H131.027Z" fill="white"/>
<path d="M59.7917 6.51711C76.7525 5.23866 88.77 18.8527 84.8778 35.4953C84.821 35.7453 84.696 36.2567 84.6164 36.501C84.355 36.5351 83.8437 36.5636 83.5823 36.5692C66.4738 37.2795 55.3598 22.9324 59.7917 6.50007V6.51711Z" fill="white"/>
<path d="M7.32411 186.989V199.808H0V174.165H7.32411L14.6482 186.989V174.165H21.978V199.808H14.6482L7.32411 186.989Z" fill="white"/>
<path d="M23.8076 181.125H30.6942V190.785C30.6942 192.603 31.3287 193.726 32.5977 194.154C32.8151 194.196 33.0355 194.221 33.2568 194.228H33.6943C34.9898 194.228 35.8478 193.467 36.2626 191.955C36.3138 191.739 36.3386 191.518 36.3364 191.296V181.125H43.3139V199.916H36.3364V197.353C34.6735 199.353 32.7928 200.355 30.6942 200.359H30.1828C27.1524 200.359 25.1239 198.844 24.0974 195.813C23.9153 194.996 23.8182 194.162 23.8076 193.325V181.125Z" fill="white"/>
<path d="M46.0072 181.125V174.352H53.3313V181.125H58.8087V186.29H53.3313V191.307C53.3358 192.167 53.6189 193.003 54.1381 193.688C54.5529 194.256 56.1098 194.637 58.8087 194.773V199.808H55.8143C54.0727 199.799 52.3446 199.502 50.7005 198.927C47.5641 197.412 45.9958 194.381 45.9958 189.836V186.285H44.1435V181.125H46.0072Z" fill="white"/>
<path d="M73.0933 180.835L75.2184 181.273V188.012H74.1161C71.2864 188.012 69.4303 188.794 68.5477 190.358C68.0136 191.125 67.7409 192.495 67.7409 194.461V199.807H60.6384V181.125H67.5988V184.938L68.6955 183.102C69.192 182.399 69.851 181.825 70.6167 181.43C71.3823 181.035 72.2319 180.831 73.0933 180.835Z" fill="white"/>
<path d="M77.1218 179.296V174.182H84.4459V179.296H77.1218ZM84.4459 181.125V199.808H77.1218V181.125H84.4459Z" fill="white"/>
<path d="M96.4974 173.545C100.058 173.545 102.768 174.559 104.628 176.585C105.915 178.031 106.643 179.889 106.68 181.824H100.162C100.087 181.157 99.7549 180.546 99.2362 180.12C98.7418 179.739 97.827 179.551 96.4974 179.551C94.3951 179.551 93.2227 180.015 92.9803 180.943C92.9636 181.044 92.9389 181.142 92.9064 181.239C92.9064 182.326 94.2019 183.106 96.7929 183.58C100.376 184.436 102.744 185.267 103.895 186.074C106.339 187.438 107.56 189.465 107.56 192.154C107.56 195.631 105.704 198.094 101.992 199.541C100.342 200.084 98.6151 200.356 96.8782 200.347C94.279 200.417 91.7197 199.698 89.537 198.285C87.643 196.883 86.5066 195.368 86.1278 193.739C85.9172 192.902 85.8179 192.04 85.8323 191.177H91.9859C92.4746 192.449 93.0258 193.251 93.6451 193.597C94.5142 193.99 95.4659 194.166 96.4179 194.109H97.2929C99.5165 193.95 100.626 193.362 100.623 192.347C100.623 191.188 98.8044 190.334 95.1679 189.785C92.02 189.05 89.823 188.267 88.5767 187.438C87.6854 186.817 86.9637 185.982 86.4774 185.011C85.9912 184.039 85.7557 182.961 85.7926 181.875C85.7926 178.39 87.5502 175.928 91.0655 174.489C92.813 173.882 94.6476 173.563 96.4974 173.545Z" fill="white"/>
<path d="M128.237 199.808H121.351V190.063C121.351 188.245 120.716 187.122 119.447 186.694C119.23 186.652 119.009 186.627 118.788 186.62H118.345C117.049 186.62 116.197 187.381 115.782 188.893C115.728 189.108 115.703 189.33 115.708 189.552V199.779H108.748V181.125H115.708V183.472C117.367 181.468 119.248 180.466 121.351 180.466H121.862C124.892 180.466 126.919 181.982 127.942 185.012C128.128 185.829 128.227 186.663 128.237 187.501V199.808Z" fill="white"/>
<path d="M137.76 200.285C136.558 200.278 135.366 200.055 134.243 199.626C130.834 197.906 129.129 194.792 129.129 190.285V190.063C129.104 188.345 129.533 186.652 130.374 185.154C132.169 182.423 134.512 181.055 137.402 181.051H138.357C139.998 181.086 141.572 181.711 142.789 182.813V181.108H150.113V199.791H142.749V198.506H142.675C141.308 199.678 139.561 200.311 137.76 200.285ZM136.879 190.796C136.845 191.679 136.97 192.56 137.249 193.398C137.686 194.421 138.567 194.938 139.885 194.938C140.127 194.889 140.372 194.865 140.618 194.864C142.183 194.557 142.963 193.152 142.959 190.648C142.914 188.807 142.743 187.758 142.448 187.5C142.448 186.875 141.664 186.489 140.101 186.33H139.664C139.217 186.345 138.774 186.418 138.345 186.546C137.368 187.194 136.879 188.415 136.879 190.211V190.796Z" fill="white"/>
<path d="M164.341 180.671C165.543 180.677 166.735 180.9 167.858 181.33C171.267 183.057 172.972 185.866 172.972 189.756V189.978C172.995 191.691 172.566 193.381 171.727 194.876C169.932 197.607 167.587 198.974 164.693 198.978H163.772C162.131 198.944 160.558 198.318 159.34 197.217V205.313H152.011V196.62V181.125H159.352V182.409H159.426C160.801 181.256 162.546 180.638 164.341 180.671ZM165.221 189.245C165.206 188.659 165.08 188.08 164.852 187.54C164.416 186.517 163.538 186.006 162.216 186.006C161.974 186.052 161.729 186.077 161.483 186.08C159.922 186.368 159.142 187.466 159.142 189.375C159.187 191.216 159.358 192.266 159.653 192.523C159.653 193.148 160.431 193.535 161.994 193.694H162.437C162.884 193.681 163.328 193.608 163.755 193.478C164.733 192.83 165.221 191.609 165.221 189.813V189.245Z" fill="white"/>
<path d="M29.251 211.666H29.6487C30.407 211.646 31.1583 211.815 31.8342 212.16C32.51 212.504 33.0889 213.012 33.5182 213.638C33.4538 213.721 32.6962 214.255 31.2454 215.24C31.0466 214.95 30.7792 214.713 30.4669 214.552C30.1546 214.39 29.8071 214.308 29.4555 214.314C28.5919 214.314 27.9839 214.802 27.626 215.785L27.5918 216.183V216.467C27.5827 216.706 27.6213 216.944 27.7053 217.168C27.7892 217.392 27.9169 217.597 28.0808 217.771C28.2448 217.945 28.4417 218.085 28.6602 218.182C28.8787 218.279 29.1143 218.331 29.3533 218.337H29.6374C29.967 218.308 30.2876 218.214 30.5803 218.06C30.873 217.906 31.132 217.695 31.342 217.439C32.7511 218.375 33.5087 218.888 33.6148 218.979C32.9665 219.84 32.0673 220.479 31.0408 220.808C30.4812 220.935 29.91 221.004 29.3362 221.013C28.4354 221.035 27.5453 220.814 26.7594 220.373C25.9736 219.932 25.321 219.287 24.8702 218.507C24.5241 217.858 24.339 217.135 24.3304 216.399V216.263C24.3338 215.507 24.5289 214.764 24.8976 214.104C25.2663 213.444 25.7965 212.889 26.4384 212.49C27.2799 211.956 28.2547 211.671 29.251 211.666Z" fill="white"/>
<path d="M34.4727 212.092H37.6319V216.536C37.6319 217.377 37.9217 217.894 38.507 218.092C38.6081 218.113 38.7107 218.124 38.8138 218.127H39.0127C39.615 218.127 40.007 217.774 40.2002 217.075C40.225 216.977 40.2364 216.876 40.2343 216.774V212.092H43.4446V220.763H40.2343V219.575C39.9355 219.99 39.5455 220.331 39.0943 220.571C38.6432 220.812 38.1429 220.945 37.6319 220.962H37.3933C36.7553 220.99 36.1273 220.797 35.6158 220.414C35.1042 220.032 34.7405 219.485 34.5864 218.865C34.5013 218.492 34.4555 218.111 34.45 217.729L34.4727 212.092Z" fill="white"/>
<path d="M52.5926 220.712H44.9844V218.041L48.6209 214.729H44.9844V212.092H52.5926V214.729L48.9562 218.041H52.5926V220.712Z" fill="white"/>
<path d="M58.2008 220.712V208.882H61.5816V220.712H58.2008Z" fill="white"/>
<path d="M63.1157 211.246V208.882H66.4965V211.246H63.1157ZM66.4965 212.092V220.712H63.1157V212.092H66.4965Z" fill="white"/>
<path d="M71.9228 215.74V220.712H68.5136V215.74H67.6613V213.359H68.5136C68.5591 211.382 69.2826 210.056 70.6841 209.382C71.4458 209.116 72.2467 208.979 73.0535 208.979H74.4172V211.297C73.1729 211.359 72.4569 211.53 72.2637 211.797C72.027 212.116 71.8976 212.502 71.8944 212.899V213.371H73.9967V215.751L71.9228 215.74Z" fill="white"/>
<path d="M79.6788 211.802C82.0463 211.802 83.5615 213.032 84.2244 215.49C84.3486 216.059 84.4058 216.641 84.3948 217.223V217.382H78.139V217.416C78.2785 217.831 78.5685 218.177 78.9515 218.388C79.2424 218.55 79.5678 218.639 79.9004 218.649H80.014C80.2424 218.631 80.4635 218.56 80.6604 218.443C80.8573 218.325 81.0249 218.165 81.1504 217.973H84.1903V218.007C83.0539 219.977 81.6353 220.962 79.9345 220.962C79.2536 221.006 78.5712 220.902 77.9345 220.657C77.2978 220.412 76.7219 220.031 76.2468 219.541C75.4372 218.708 74.9777 217.595 74.9627 216.433C74.9483 215.824 75.0611 215.218 75.2939 214.654C75.5268 214.091 75.8745 213.582 76.315 213.16C76.7587 212.724 77.2842 212.379 77.8615 212.146C78.4387 211.913 79.0563 211.796 79.6788 211.802ZM78.1219 215.388H81.2356V215.359C81.2356 215.125 81.0652 214.869 80.7243 214.592C80.4337 214.438 80.1101 214.356 79.781 214.354C78.8435 214.354 78.2924 214.7 78.1049 215.388H78.1219Z" fill="white"/>
<path d="M89.4291 208.882L88.77 212.939H86.2358L85.5596 208.882H89.4291Z" fill="white"/>
<path d="M94.3895 211.7H94.7872C96.0894 211.725 97.3649 212.074 98.4975 212.717C98.4975 212.774 98.1187 213.45 97.3611 214.746L96.2247 214.422C95.7736 214.281 95.3052 214.202 94.8326 214.189H94.6167C94.4796 214.176 94.3423 214.213 94.2305 214.293C94.1186 214.374 94.0398 214.492 94.0087 214.626C94.0087 214.814 94.4633 215.001 95.3611 215.195C96.2785 215.379 97.1475 215.752 97.9123 216.291C98.1727 216.518 98.3788 216.799 98.5155 217.116C98.6522 217.433 98.716 217.776 98.7021 218.121C98.7021 219.689 97.7759 220.672 95.9179 221.058C95.5879 221.099 95.256 221.122 94.9236 221.127H94.6679C93.1066 221.137 91.5783 220.678 90.2814 219.808V219.774C91.0825 218.519 91.503 217.888 91.5371 217.882H91.5712C92.4498 218.37 93.4358 218.632 94.4406 218.644H94.6508C95.1565 218.644 95.4065 218.53 95.4065 218.303C95.4065 218.075 94.8099 217.734 93.6224 217.496C92.3155 217.144 91.4651 216.653 91.0712 216.024C90.8379 215.624 90.7144 215.169 90.7132 214.706C90.7132 213.178 91.6394 212.2 93.4974 211.763C93.7931 211.723 94.0911 211.702 94.3895 211.7Z" fill="white"/>
<path d="M110.06 220.928C109.23 220.945 108.422 220.658 107.788 220.121H107.754V220.689H104.344V208.882H107.725V212.859C108.286 212.35 109.013 212.061 109.771 212.047H110.208C110.868 212.049 111.515 212.225 112.085 212.557C112.654 212.889 113.126 213.366 113.453 213.939C113.839 214.633 114.035 215.417 114.021 216.212V216.314C114.021 218.394 113.233 219.831 111.657 220.627C111.146 220.819 110.606 220.921 110.06 220.928ZM110.47 216.553V216.28C110.511 215.962 110.47 215.639 110.352 215.34C110.233 215.042 110.041 214.779 109.793 214.575C109.596 214.515 109.392 214.481 109.185 214.473H108.981C108.259 214.547 107.901 214.729 107.901 215.041C107.765 215.161 107.685 215.644 107.663 216.496C107.663 217.632 108.021 218.297 108.742 218.439C108.857 218.44 108.971 218.451 109.083 218.473C109.335 218.499 109.588 218.444 109.807 218.317C110.026 218.189 110.198 217.995 110.299 217.763C110.43 217.373 110.487 216.963 110.47 216.553Z" fill="white"/>
<path d="M115.197 212.092H118.373V216.536C118.373 217.377 118.669 217.894 119.254 218.092C119.355 218.113 119.458 218.124 119.561 218.127H119.76C120.356 218.127 120.754 217.774 120.947 217.075C120.972 216.977 120.983 216.876 120.981 216.774V212.092H124.192V220.763H120.981V219.575C120.682 219.991 120.291 220.332 119.839 220.573C119.387 220.813 118.885 220.946 118.373 220.962H118.14C117.502 220.99 116.874 220.797 116.363 220.414C115.851 220.032 115.487 219.485 115.333 218.865C115.248 218.492 115.202 218.111 115.197 217.729V212.092Z" fill="white"/>
<path d="M129.385 211.7H129.783C131.085 211.724 132.361 212.074 133.493 212.717C133.493 212.774 133.114 213.45 132.357 214.746L131.22 214.422C130.769 214.281 130.301 214.202 129.828 214.189H129.618C129.271 214.189 129.05 214.331 129.01 214.626C129.01 214.814 129.459 215.001 130.362 215.195C131.279 215.38 132.148 215.753 132.913 216.291C133.172 216.519 133.376 216.801 133.512 217.118C133.647 217.434 133.711 217.777 133.698 218.121C133.698 219.689 132.771 220.672 130.919 221.058C130.587 221.099 130.253 221.121 129.919 221.127H129.68C128.119 221.138 126.59 220.678 125.294 219.808V219.774C126.089 218.519 126.51 217.888 126.544 217.882H126.578C127.457 218.37 128.443 218.632 129.447 218.644H129.68C130.18 218.644 130.43 218.53 130.43 218.303C130.43 217.99 129.862 217.734 128.646 217.496C127.339 217.144 126.489 216.653 126.095 216.024C125.863 215.624 125.742 215.169 125.743 214.706C125.743 213.178 126.669 212.2 128.521 211.763C128.808 211.724 129.096 211.704 129.385 211.7Z" fill="white"/>
<path d="M137.635 220.564L134.112 212.092H137.862L139.181 216.484L140.567 212.092H144.249L141.613 219.24C140.855 221.331 139.618 222.729 137.902 223.434C137.351 223.63 136.779 223.766 136.198 223.837H135.362V221.513C136.013 221.539 136.655 221.364 137.203 221.013C137.359 220.876 137.504 220.725 137.635 220.564Z" fill="white"/>
<path d="M148.715 218.342V220.712H145.34V218.342H148.715Z" fill="white"/>
</g>
<defs>
<clipPath id="clip0_50_568">
<rect width="173" height="223.837" fill="white"/>
</clipPath>
</defs>
</svg>
