<svg width="204" height="86" viewBox="0 0 204 86" fill="none" xmlns="http://www.w3.org/2000/svg">
<g clip-path="url(#clip0_48_101)">
<path d="M11.7069 66.6111C12.8358 58.8137 9.64102 50.4846 2.21412 41.8547C0.00496777 47.4454 -0.566911 53.5495 0.565363 59.4532C1.69764 65.3569 4.48726 70.8163 8.60804 75.193C10.1926 72.5626 11.2454 69.6469 11.7069 66.6111Z" fill="#EA6230"/>
<path d="M62.9456 57.7024C62.6854 59.679 62.2358 61.626 61.6031 63.5167C55.754 61.3374 46.915 59.4109 37.967 62.6057C29.7555 65.5433 23.2047 72.1421 18.4321 82.2626C16.7473 81.4804 15.133 80.5544 13.6073 79.4949C15.9364 75.8951 17.4768 71.8429 18.127 67.6049C19.4912 58.2821 16.1701 48.6672 8.255 38.9695C11.2415 40.6064 14.7194 41.1074 18.0464 40.3799C21.3735 39.6525 24.325 37.7458 26.3559 35.012C27.3776 33.6565 28.1441 32.1265 28.618 30.4966C29.3478 35.4789 31.279 40.2088 34.2448 44.2782C40.0765 52.1366 49.7262 56.6346 62.9456 57.7024Z" fill="#6BA814"/>
<path d="M40.1113 68.7119C33.7741 70.9914 28.5831 76.2347 24.6212 84.3371C30.5937 85.6886 36.8302 85.277 42.5733 83.1525C48.3165 81.0279 53.3193 77.2817 56.9744 72.3687C57.6711 71.4299 58.3156 70.4536 58.9052 69.4441C54.0586 67.7269 46.9891 66.2406 40.1113 68.7119Z" fill="#2C6E04"/>
<path d="M39.4576 40.4339C44.0994 46.6448 52.0537 50.2492 63.133 51.182C62.8071 46.658 61.5092 42.2576 59.3279 38.2809C57.1466 34.3041 54.1333 30.8447 50.4933 28.1385C45.8799 24.6963 40.4105 22.5857 34.6807 22.0366C34.393 27.1927 35.0163 34.502 39.4576 40.4339Z" fill="#E3B104"/>
<path d="M16.9721 37.5616C20.0869 37.5616 22.612 35.0365 22.612 31.9216C22.612 28.8068 20.0869 26.2817 16.9721 26.2817C13.8572 26.2817 11.3322 28.8068 11.3322 31.9216C11.3322 35.0365 13.8572 37.5616 16.9721 37.5616Z" fill="#6BA814"/>
<path d="M55.0523 0.444508C55.3269 10.578 47.6428 19.2428 37.4439 19.6742C35.7205 19.769 33.9923 19.6223 32.3096 19.2384C32.2579 17.5154 32.4442 15.7936 32.8631 14.1215C35.1993 4.18847 45.1498 -1.74348 55.0523 0.422694V0.444508Z" fill="#2C6E04"/>
<path d="M17.4863 3.43887C26.43 2.7633 32.7716 9.94177 30.7144 18.7329C30.6882 18.8636 30.6185 19.1339 30.5793 19.2602C30.397 19.2827 30.2137 19.2944 30.0301 19.2951C21.008 19.6743 15.1458 12.0949 17.4863 3.43887Z" fill="#6BA814"/>
<path d="M76.9146 47.0501V56.8872H71.2964V37.2173H76.9146L82.5371 47.0501V37.2173H88.1552V56.8872H82.5371L76.9146 47.0501Z" fill="#2C6E04"/>
<path d="M89.5586 42.5564H94.8411V49.9659C94.8411 51.3606 95.3293 52.2192 96.3012 52.5505C96.4681 52.5815 96.6372 52.599 96.8068 52.6028H97.1468C98.1362 52.6028 98.7943 52.0231 99.1125 50.8594C99.1515 50.6937 99.1705 50.524 99.1691 50.3538V42.5695H104.508V56.9831H99.1691V55.0174C97.8964 56.5516 96.4538 57.3187 94.8411 57.3187H94.4314C92.1069 57.3187 90.5524 56.1564 89.7678 53.8319C89.6247 53.2054 89.5487 52.5654 89.5412 51.9228L89.5586 42.5564Z" fill="#2C6E04"/>
<path d="M106.587 42.5564V37.3611H112.205V42.5564H116.407V46.5183H112.205V50.3669C112.209 51.0265 112.426 51.6673 112.824 52.1931C113.143 52.6289 114.337 52.921 116.407 53.0212V56.8872H114.132C112.796 56.8802 111.471 56.6519 110.209 56.2116C107.803 55.0494 106.6 52.7248 106.6 49.238V46.514H105.18V42.5521L106.587 42.5564Z" fill="#2C6E04"/>
<path d="M127.364 42.3343L128.994 42.6699V47.8391H128.149C125.978 47.8391 124.555 48.4391 123.878 49.6391C123.468 50.2203 123.263 51.2692 123.263 52.786V56.8873H117.81V42.5566H123.15V45.4768L123.991 44.0733C124.372 43.5334 124.877 43.0934 125.465 42.7906C126.052 42.4878 126.704 42.3313 127.364 42.3343Z" fill="#2C6E04"/>
<path d="M130.455 41.1399V37.2173H136.073V41.1399H130.455ZM136.073 42.5434V56.8741H130.455V42.5434H136.073Z" fill="#2C6E04"/>
<path d="M145.317 36.7422C148.054 36.7422 150.133 37.5195 151.554 39.074C152.54 40.1819 153.098 41.6054 153.127 43.0882H148.128C148.073 42.5758 147.818 42.1059 147.418 41.7806C147.039 41.4886 146.337 41.3448 145.317 41.3448C143.709 41.3448 142.807 41.7022 142.619 42.4126C142.606 42.4881 142.587 42.5624 142.562 42.6349C142.562 43.4717 143.556 44.0689 145.544 44.435C148.295 45.0887 150.111 45.7251 150.992 46.344C152.866 47.3958 153.803 48.9504 153.803 51.0076C153.803 53.6808 152.379 55.5695 149.532 56.6737C148.266 57.0892 146.941 57.2968 145.609 57.2882C143.619 57.344 141.659 56.7954 139.987 55.7148C138.534 54.6368 137.662 53.4745 137.371 52.228C137.213 51.5954 137.136 50.9449 137.145 50.2928H141.865C142.24 51.2662 142.664 51.8837 143.138 52.1452C143.804 52.4481 144.534 52.5842 145.265 52.5418H145.94C147.644 52.4197 148.499 51.9665 148.499 51.1907C148.499 50.3015 147.103 49.6463 144.31 49.225C141.896 48.6642 140.21 48.0641 139.254 47.4249C138.57 46.9479 138.016 46.3071 137.643 45.561C137.27 44.8149 137.09 43.9872 137.119 43.1536C137.119 40.4862 138.467 38.5975 141.163 37.4875C142.498 37.0158 143.901 36.7641 145.317 36.7422Z" fill="#2C6E04"/>
<path d="M169.664 56.8873H164.381V49.4212C164.381 48.0264 163.894 47.1649 162.921 46.8366C162.755 46.8022 162.585 46.7833 162.415 46.7799H162.076C161.086 46.7799 160.428 47.3596 160.11 48.5233C160.071 48.6889 160.051 48.8587 160.053 49.0289V56.8742H154.714V42.5434H160.053V44.3435C161.326 42.8064 162.769 42.0378 164.381 42.0378H164.773C167.098 42.0378 168.653 43.2001 169.437 45.5246C169.58 46.1526 169.656 46.794 169.664 47.438V56.8873Z" fill="#2C6E04"/>
<path d="M176.969 57.2664C176.046 57.262 175.131 57.0892 174.271 56.7565C171.656 55.4402 170.348 53.0532 170.348 49.5955V49.4211C170.328 48.1036 170.658 46.8044 171.303 45.6554C172.68 43.5575 174.478 42.5085 176.698 42.5085H177.426C178.685 42.535 179.892 43.0147 180.826 43.8597V42.5521H186.448V56.8829H180.791V55.8979H180.73C179.683 56.7933 178.347 57.2795 176.969 57.2664ZM176.293 49.9877C176.267 50.6647 176.363 51.3408 176.576 51.9839C176.91 52.7685 177.585 53.1607 178.599 53.1607C178.784 53.1255 178.972 53.1065 179.161 53.1041C180.361 52.8745 180.96 51.798 180.957 49.8744C180.922 48.4623 180.791 47.6574 180.564 47.4598C180.564 46.9804 179.966 46.6796 178.769 46.5576H178.429C178.086 46.5694 177.746 46.6266 177.418 46.7276C176.668 47.2244 176.293 48.1615 176.293 49.5388V49.9877Z" fill="#2C6E04"/>
<path d="M197.366 42.1905C198.289 42.1955 199.203 42.3668 200.064 42.6961C202.679 44.0152 203.987 46.1698 203.987 49.1597V49.3297C204.007 50.6459 203.678 51.9439 203.032 53.0911C201.655 55.1919 199.858 56.2409 197.641 56.2379H196.909C195.65 56.2127 194.443 55.7345 193.509 54.8912V61.102H187.9V54.4422V42.5566H193.544V43.5416H193.601C194.65 42.6483 195.989 42.1679 197.366 42.1905ZM198.042 48.7675C198.03 48.3178 197.934 47.8743 197.759 47.4599C197.423 46.6754 196.747 46.2787 195.736 46.2787C195.551 46.3161 195.363 46.3351 195.174 46.3354C193.975 46.562 193.378 47.4032 193.378 48.8677C193.378 50.3322 193.544 51.0862 193.771 51.2823C193.771 51.7559 194.371 52.0552 195.571 52.1802H195.906C196.249 52.1683 196.589 52.1127 196.917 52.0146C197.667 51.5177 198.042 50.5806 198.042 49.2033V48.7675Z" fill="#2C6E04"/>
<path d="M75.1145 65.9834H75.4196C76.0013 65.9679 76.5776 66.0981 77.096 66.3622C77.6144 66.6264 78.0585 67.0161 78.3878 67.4958C78.3355 67.5597 77.7471 67.9694 76.6226 68.7249C76.4701 68.5024 76.265 68.3211 76.0254 68.1971C75.7859 68.0732 75.5193 68.0104 75.2496 68.0145C74.5872 68.0145 74.1208 68.3893 73.8506 69.139L73.8244 69.4441V69.6794C73.8234 69.9886 73.9215 70.2901 74.1042 70.5395C74.287 70.7889 74.5448 70.9732 74.8399 71.0654C74.9481 71.0942 75.0593 71.1103 75.1712 71.1134H75.3935C75.6463 71.0913 75.8921 71.019 76.1166 70.9007C76.3411 70.7825 76.5398 70.6207 76.701 70.4247C77.7819 71.1395 78.3573 71.5362 78.4444 71.6059C77.9464 72.2677 77.2549 72.7581 76.4657 73.0093C76.0364 73.1067 75.5982 73.1593 75.1581 73.1662C74.466 73.1834 73.782 73.0135 73.1783 72.6744C72.5746 72.3354 72.0736 71.8398 71.728 71.2398C71.4569 70.7444 71.3075 70.1916 71.2921 69.6271V69.5225C71.2952 68.9417 71.4456 68.3712 71.7292 67.8643C72.0127 67.3574 72.4202 66.9307 72.9135 66.6241C73.5708 66.2043 74.3347 65.982 75.1145 65.9834Z" fill="#EA6230"/>
<path d="M79.12 66.3103H81.5564V69.7187C81.5564 70.3637 81.7787 70.7603 82.2319 70.9085C82.308 70.9241 82.3853 70.9328 82.4629 70.9347H82.6199C83.0775 70.9347 83.3782 70.6688 83.5264 70.1327C83.5386 70.0578 83.5415 69.9817 83.5351 69.9061V66.319H85.9977V72.957H83.5351V72.0505C83.3059 72.3686 83.0068 72.63 82.6607 72.8143C82.3146 72.9987 81.9308 73.1012 81.5389 73.1139H81.3559C80.8671 73.1353 80.386 72.9867 79.9943 72.6935C79.6026 72.4004 79.3245 71.9806 79.2071 71.5056C79.1418 71.2195 79.1068 70.9274 79.1025 70.6339L79.12 66.3103Z" fill="#EA6230"/>
<path d="M93.0149 72.9178H87.1832V70.8736L89.9683 68.3327H87.1832V66.3103H93.0149V68.3327L90.2298 70.8736H93.0149V72.9178Z" fill="#EA6230"/>
<path d="M97.3168 72.9179V63.8435H99.9319V72.9179H97.3168Z" fill="#EA6230"/>
<path d="M101.091 65.661V63.8435H103.706V65.661H101.091ZM103.706 66.3104V72.9179H101.091V66.3104H103.706Z" fill="#EA6230"/>
<path d="M107.843 69.1085V72.9178H105.249V69.1085H104.596V67.291H105.249C105.284 65.7743 105.841 64.7573 106.919 64.2401C107.501 64.0342 108.114 63.9282 108.732 63.9263H109.782V65.7089C108.828 65.7568 108.274 65.8832 108.13 66.0924C107.946 66.3343 107.845 66.6295 107.843 66.9336V67.2998H109.46V69.126L107.843 69.1085Z" fill="#EA6230"/>
<path d="M113.779 66.088C115.601 66.088 116.763 67.0294 117.266 68.9123C117.359 69.3417 117.403 69.7804 117.396 70.2198V70.3463H112.615V70.368C112.718 70.6866 112.94 70.9533 113.234 71.1134C113.456 71.24 113.706 71.3103 113.962 71.3182H114.045C114.22 71.3044 114.39 71.2505 114.541 71.1605C114.692 71.0706 114.821 70.9471 114.916 70.7995H117.248V70.8257C116.377 72.3395 115.288 73.095 113.984 73.0921C113.462 73.1268 112.938 73.0468 112.45 72.8578C111.963 72.6688 111.522 72.3754 111.159 71.9981C110.538 71.3603 110.184 70.5089 110.17 69.6184C110.16 69.1509 110.247 68.6864 110.425 68.2543C110.604 67.8221 110.87 67.4318 111.207 67.1079C111.896 66.4415 112.821 66.0748 113.779 66.088ZM112.589 68.8382H114.973C114.955 68.7179 114.911 68.603 114.844 68.5014C114.777 68.3998 114.689 68.314 114.585 68.2498C114.361 68.1313 114.111 68.0685 113.857 68.0668C113.173 68.045 112.737 68.3108 112.589 68.8382Z" fill="#EA6230"/>
<path d="M121.271 63.8435L120.752 66.9555H118.809L118.29 63.8435H121.271Z" fill="#EA6230"/>
<path d="M125.076 66.0095H125.381C126.38 66.0277 127.359 66.2959 128.227 66.7897C128.227 66.8333 127.944 67.3519 127.377 68.3457L126.506 68.0972C126.16 67.9879 125.801 67.9263 125.438 67.9142H125.277C125.171 67.9042 125.065 67.9333 124.979 67.9959C124.893 68.0585 124.833 68.1504 124.81 68.2542C124.81 68.3936 125.155 68.5418 125.848 68.69C126.552 68.83 127.218 69.1166 127.805 69.5312C128.003 69.7047 128.16 69.9204 128.264 70.1625C128.368 70.4046 128.417 70.667 128.406 70.9303C128.406 72.1376 127.696 72.8873 126.275 73.188C126.02 73.2188 125.764 73.2363 125.508 73.2403H125.316C124.118 73.2488 122.946 72.8965 121.951 72.2291V72.203C122.566 71.2397 122.884 70.7559 122.91 70.7516H122.936C123.611 71.1262 124.369 71.3269 125.142 71.3356H125.303C125.686 71.3356 125.878 71.2484 125.878 71.0741C125.878 70.8344 125.42 70.6383 124.51 70.4508C123.507 70.185 122.858 69.8101 122.553 69.3263C122.377 69.0182 122.284 68.6699 122.282 68.3152C122.282 67.1529 122.993 66.4003 124.414 66.0575C124.633 66.0281 124.855 66.0121 125.076 66.0095Z" fill="#EA6230"/>
<path d="M137.101 73.0878C136.464 73.0996 135.844 72.8779 135.358 72.4645H135.332V72.9003H132.717V63.8259H135.332V66.8769C135.763 66.4887 136.32 66.269 136.901 66.258H137.236C137.743 66.2621 138.239 66.4002 138.674 66.6582C139.11 66.9162 139.469 67.2849 139.716 67.7268C140.015 68.2586 140.165 68.8606 140.152 69.4702V69.5487C140.152 71.1439 139.546 72.2466 138.335 72.8568C137.94 73.0059 137.523 73.0841 137.101 73.0878ZM137.411 69.7317V69.5225C137.443 69.2784 137.413 69.0299 137.322 68.801C137.231 68.572 137.083 68.3703 136.892 68.2149C136.741 68.1683 136.584 68.1419 136.426 68.1365H136.273C135.72 68.1932 135.445 68.3326 135.445 68.5506C135.34 68.6421 135.279 69.0126 135.262 69.6663C135.262 70.538 135.541 71.048 136.094 71.1569C136.181 71.1577 136.267 71.1664 136.352 71.1831C136.545 71.2037 136.74 71.1619 136.907 71.0639C137.075 70.9658 137.207 70.8167 137.284 70.6383C137.38 70.346 137.423 70.039 137.411 69.7317Z" fill="#EA6230"/>
<path d="M141.041 66.3103H143.478V69.7187C143.478 70.3637 143.7 70.7603 144.153 70.9085C144.229 70.9241 144.307 70.9328 144.384 70.9347H144.554C144.99 70.9347 145.313 70.6688 145.461 70.1327C145.48 70.0557 145.488 69.9766 145.487 69.8973V66.3103H147.95V72.957H145.487V72.0505C145.258 72.3686 144.959 72.63 144.613 72.8143C144.267 72.9987 143.883 73.1012 143.491 73.1139H143.308C142.819 73.1353 142.338 72.9867 141.946 72.6935C141.555 72.4004 141.276 71.9806 141.159 71.5056C141.094 71.2195 141.059 70.9274 141.054 70.6339L141.041 66.3103Z" fill="#EA6230"/>
<path d="M151.92 66.0095H152.225C153.224 66.0277 154.203 66.2959 155.071 66.7897C155.071 66.8333 154.781 67.3519 154.2 68.3457L153.328 68.0972C152.981 67.9879 152.62 67.9263 152.256 67.9142H152.095C151.989 67.9042 151.883 67.9333 151.797 67.9959C151.711 68.0585 151.651 68.1504 151.628 68.2542C151.628 68.3936 151.972 68.5418 152.665 68.69C153.37 68.8291 154.037 69.1158 154.622 69.5312C154.821 69.7047 154.978 69.9204 155.082 70.1625C155.186 70.4046 155.234 70.667 155.224 70.9303C155.224 72.1376 154.514 72.8873 153.093 73.188C152.839 73.2188 152.585 73.2363 152.33 73.2403H152.134C150.936 73.2488 149.764 72.8965 148.769 72.2291V72.203C149.384 71.2397 149.702 70.7559 149.728 70.7516H149.785C150.46 71.1257 151.218 71.3264 151.99 71.3356H152.151C152.535 71.3356 152.727 71.2484 152.727 71.0741C152.727 70.8344 152.291 70.6383 151.362 70.4508C150.36 70.1864 149.706 69.8116 149.401 69.3263C149.225 69.0182 149.132 68.6699 149.131 68.3152C149.131 67.1529 149.841 66.4003 151.262 66.0575C151.48 66.0285 151.7 66.0125 151.92 66.0095Z" fill="#EA6230"/>
<path d="M158.227 72.8088L155.525 66.3103H158.401L159.417 69.6794L160.476 66.3103H163.296L161.3 71.7933C160.719 73.3972 159.77 74.468 158.454 75.0055C158.031 75.1595 157.592 75.2648 157.146 75.3193H156.497V73.5367C156.996 73.5569 157.489 73.423 157.909 73.1532C158.025 73.0483 158.132 72.9331 158.227 72.8088Z" fill="#EA6230"/>
<path d="M166.752 71.1047V72.9179H164.168V71.1047H166.752Z" fill="#EA6230"/>
</g>
<defs>
<clipPath id="clip0_48_101">
<rect width="204" height="85.113" fill="white"/>
</clipPath>
</defs>
</svg>
